<?xml version="1.0" encoding="UTF-8" standalone="no"?>
<svg
   xmlns:dc="http://purl.org/dc/elements/1.1/"
   xmlns:cc="http://creativecommons.org/ns#"
   xmlns:rdf="http://www.w3.org/1999/02/22-rdf-syntax-ns#"
   xmlns:svg="http://www.w3.org/2000/svg"
   xmlns="http://www.w3.org/2000/svg"
   viewBox="0 0 400 400"
   height="400"
   width="400"
   xml:space="preserve"
   id="svg2"
   version="1.1"><metadata
     id="metadata8"><rdf:RDF><cc:Work
         rdf:about=""><dc:format>image/svg+xml</dc:format><dc:type
           rdf:resource="http://purl.org/dc/dcmitype/StillImage" /></cc:Work></rdf:RDF></metadata><defs
     id="defs6"><clipPath
       id="clipPath20"
       clipPathUnits="userSpaceOnUse"><path
         id="path18"
         d="M 3000,1500 C 3000,671.57 2328.43,0 1500,0 671.574,0 0,671.57 0,1500 c 0,828.43 671.574,1500 1500,1500 828.43,0 1500,-671.57 1500,-1500 z" /></clipPath><clipPath
       id="clipPath30"
       clipPathUnits="userSpaceOnUse"><path
         id="path28"
         d="M 3000,1500 C 3000,671.57 2328.43,0 1500,0 671.574,0 0,671.57 0,1500 c 0,828.43 671.574,1500 1500,1500 828.43,0 1500,-671.57 1500,-1500 z" /></clipPath><clipPath
       id="clipPath36"
       clipPathUnits="userSpaceOnUse"><path
         id="path34"
         d="M -1000,1500 H 1999.99 V 3000 H -1000 Z" /></clipPath><clipPath
       id="clipPath48"
       clipPathUnits="userSpaceOnUse"><path
         id="path46"
         d="M 3000,1500 C 3000,671.57 2328.43,0 1500,0 671.574,0 0,671.57 0,1500 c 0,828.43 671.574,1500 1500,1500 828.43,0 1500,-671.57 1500,-1500 z" /></clipPath><clipPath
       id="clipPath54"
       clipPathUnits="userSpaceOnUse"><path
         id="path52"
         d="M 2000,3000 H 499.996 V 1250 H -1000 v 250 z m -3000,0 v -750 h 3500 v -750 h -500 z" /></clipPath><clipPath
       id="clipPath66"
       clipPathUnits="userSpaceOnUse"><path
         id="path64"
         d="M 3000,1500 C 3000,671.57 2328.43,0 1500,0 671.574,0 0,671.57 0,1500 c 0,828.43 671.574,1500 1500,1500 828.43,0 1500,-671.57 1500,-1500 z" /></clipPath></defs><g
     transform="matrix(1.3333333,0,0,-1.3333333,0,400)"
     id="g10"><g
       transform="scale(0.1)"
       id="g12"><g
         id="g14"><g
           clip-path="url(#clipPath20)"
           id="g16"><path
             id="path22"
             style="fill:#292e7b;fill-opacity:1;fill-rule:nonzero;stroke:none"
             d="M -1000,3000 H 5000 V 0 h -6000 v 3000" /></g></g><g
         id="g24"><g
           clip-path="url(#clipPath30)"
           id="g26"><g
             clip-path="url(#clipPath36)"
             id="g32"><path
               id="path38"
               style="fill:#100f0d;fill-opacity:1;fill-rule:nonzero;stroke:none"
               d="M 1999.99,3000 -1000,1500 m 0,1500 2999.99,-1500" /><path
               id="path40"
               style="fill:none;stroke:#ffffff;stroke-width:351.56298828;stroke-linecap:butt;stroke-linejoin:miter;stroke-miterlimit:4;stroke-dasharray:none;stroke-opacity:1"
               d="M 1999.99,3000 -1000,1500 m 0,1500 2999.99,-1500" /></g></g></g><g
         id="g42"><g
           clip-path="url(#clipPath48)"
           id="g44"><g
             clip-path="url(#clipPath54)"
             id="g50"><path
               id="path56"
               style="fill:#100f0d;fill-opacity:1;fill-rule:nonzero;stroke:none"
               d="M 2000,3000 -1000,1500 m 0,1500 3000,-1500" /><path
               id="path58"
               style="fill:none;stroke:#ed1d24;stroke-width:187.5;stroke-linecap:butt;stroke-linejoin:miter;stroke-miterlimit:4;stroke-dasharray:none;stroke-opacity:1"
               d="M 2000,3000 -1000,1500 m 0,1500 3000,-1500" /></g></g></g><g
         id="g60"><g
           clip-path="url(#clipPath66)"
           id="g62"><path
             id="path68"
             style="fill:#100f0d;fill-opacity:1;fill-rule:nonzero;stroke:none"
             d="M -1000,2250 H 2500 M 499.996,3000 V 1250" /><path
             id="path70"
             style="fill:none;stroke:#ffffff;stroke-width:468.75;stroke-linecap:butt;stroke-linejoin:miter;stroke-miterlimit:4;stroke-dasharray:none;stroke-opacity:1"
             d="M -1000,2250 H 2500 M 499.996,3000 V 1250" /><path
             id="path72"
             style="fill:#100f0d;fill-opacity:1;fill-rule:nonzero;stroke:none"
             d="M -1000,2250 H 2105.47 M 499.996,3000 V 1394.53" /><path
             id="path74"
             style="fill:none;stroke:#ed1d24;stroke-width:281.25;stroke-linecap:butt;stroke-linejoin:miter;stroke-miterlimit:4;stroke-dasharray:none;stroke-opacity:1"
             d="M -1000,2250 H 2105.47 M 499.996,3000 V 1394.53" /><path
             id="path76"
             style="fill:#292e7b;fill-opacity:1;fill-rule:nonzero;stroke:none"
             d="M -1000,1500 H 2000 V 3000 H 3000 V 1000 h -4000 v 500" /><path
             id="path78"
             style="fill:#ffffff;fill-opacity:1;fill-rule:nonzero;stroke:none"
             d="M 499.996,1200 586.773,930.191 851.824,1030.57 694.984,794.5 938.719,649.859 656.363,625.301 695.246,344.559 499.996,550 304.75,344.559 343.633,625.301 61.2813,649.859 305.012,794.5 148.18,1030.57 413.223,930.191 499.996,1200" /><path
             id="path80"
             style="fill:#ffffff;fill-opacity:1;fill-rule:nonzero;stroke:none"
             d="m 2750,1901.78 41.32,-128.48 126.21,47.8 -74.68,-112.41 116.06,-68.88 -134.45,-11.69 18.51,-133.69 -92.97,97.83 -92.98,-97.83 18.52,133.69 -134.45,11.69 116.06,68.88 -74.69,112.41 126.21,-47.8 41.33,128.48" /></g></g></g></g></svg>