<svg xmlns="http://www.w3.org/2000/svg" xmlns:xlink="http://www.w3.org/1999/xlink" height="128" width="128" viewBox="0 0 29 29"><path fill="#FFFFFF" d="M0,0 h29v29H0z"></path><path fill="#000000" d="M0 0h7v1H0zM10 0h2v1H10zM13 0h1v1H13zM16 0h4v1H16zM22,0 h7v1H22zM0 1h1v1H0zM6 1h1v1H6zM8 1h1v1H8zM10 1h1v1H10zM14 1h3v1H14zM18 1h3v1H18zM22 1h1v1H22zM28,1 h1v1H28zM0 2h1v1H0zM2 2h3v1H2zM6 2h1v1H6zM9 2h2v1H9zM13 2h2v1H13zM16 2h1v1H16zM18 2h1v1H18zM20 2h1v1H20zM22 2h1v1H22zM24 2h3v1H24zM28,2 h1v1H28zM0 3h1v1H0zM2 3h3v1H2zM6 3h1v1H6zM10 3h6v1H10zM18 3h1v1H18zM22 3h1v1H22zM24 3h3v1H24zM28,3 h1v1H28zM0 4h1v1H0zM2 4h3v1H2zM6 4h1v1H6zM8 4h1v1H8zM14 4h1v1H14zM17 4h3v1H17zM22 4h1v1H22zM24 4h3v1H24zM28,4 h1v1H28zM0 5h1v1H0zM6 5h1v1H6zM9 5h1v1H9zM11 5h1v1H11zM13 5h1v1H13zM19 5h1v1H19zM22 5h1v1H22zM28,5 h1v1H28zM0 6h7v1H0zM8 6h1v1H8zM10 6h1v1H10zM12 6h1v1H12zM14 6h1v1H14zM16 6h1v1H16zM18 6h1v1H18zM20 6h1v1H20zM22,6 h7v1H22zM11 7h1v1H11zM13 7h2v1H13zM16 7h5v1H16zM0 8h1v1H0zM2 8h1v1H2zM4 8h1v1H4zM6 8h1v1H6zM9 8h2v1H9zM14 8h2v1H14zM17 8h4v1H17zM24 8h1v1H24zM27 8h1v1H27zM3 9h3v1H3zM9 9h4v1H9zM14 9h2v1H14zM20 9h4v1H20zM25 9h1v1H25zM28,9 h1v1H28zM2 10h2v1H2zM5 10h2v1H5zM13 10h1v1H13zM17 10h1v1H17zM20 10h2v1H20zM23 10h2v1H23zM26,10 h3v1H26zM1 11h2v1H1zM5 11h1v1H5zM8 11h1v1H8zM10 11h1v1H10zM15 11h1v1H15zM17 11h2v1H17zM20 11h1v1H20zM24 11h1v1H24zM27 11h1v1H27zM0 12h2v1H0zM5 12h2v1H5zM10 12h3v1H10zM16 12h2v1H16zM19 12h4v1H19zM25 12h1v1H25zM27,12 h2v1H27zM1 13h1v1H1zM3 13h2v1H3zM7 13h2v1H7zM11 13h1v1H11zM13 13h1v1H13zM15 13h2v1H15zM21 13h2v1H21zM25 13h1v1H25zM28,13 h1v1H28zM1 14h3v1H1zM6 14h4v1H6zM11 14h1v1H11zM14 14h3v1H14zM18 14h1v1H18zM20 14h1v1H20zM22 14h4v1H22zM27,14 h2v1H27zM0 15h3v1H0zM4 15h2v1H4zM9 15h3v1H9zM13 15h2v1H13zM16 15h2v1H16zM19 15h1v1H19zM24 15h2v1H24zM27 15h1v1H27zM3 16h1v1H3zM5 16h2v1H5zM9 16h1v1H9zM12 16h1v1H12zM14 16h4v1H14zM21 16h2v1H21zM25 16h1v1H25zM27,16 h2v1H27zM1 17h1v1H1zM4 17h2v1H4zM7 17h2v1H7zM10 17h1v1H10zM14 17h2v1H14zM20 17h1v1H20zM22 17h1v1H22zM25 17h2v1H25zM28,17 h1v1H28zM0 18h1v1H0zM4 18h5v1H4zM11 18h1v1H11zM13 18h1v1H13zM16 18h2v1H16zM20 18h5v1H20zM27,18 h2v1H27zM1 19h2v1H1zM7 19h1v1H7zM10 19h2v1H10zM17 19h3v1H17zM25 19h1v1H25zM27 19h1v1H27zM0 20h1v1H0zM4 20h1v1H4zM6 20h1v1H6zM8 20h5v1H8zM17 20h1v1H17zM20 20h5v1H20zM8 21h3v1H8zM13 21h1v1H13zM16 21h1v1H16zM20 21h1v1H20zM24 21h1v1H24zM26,21 h3v1H26zM0 22h7v1H0zM10 22h2v1H10zM14 22h1v1H14zM19 22h2v1H19zM22 22h1v1H22zM24 22h2v1H24zM27,22 h2v1H27zM0 23h1v1H0zM6 23h1v1H6zM11 23h5v1H11zM17 23h2v1H17zM20 23h1v1H20zM24 23h2v1H24zM27 23h1v1H27zM0 24h1v1H0zM2 24h3v1H2zM6 24h1v1H6zM8 24h1v1H8zM11 24h1v1H11zM14 24h1v1H14zM17 24h1v1H17zM20 24h5v1H20zM28,24 h1v1H28zM0 25h1v1H0zM2 25h3v1H2zM6 25h1v1H6zM9 25h1v1H9zM11 25h1v1H11zM14 25h1v1H14zM16 25h2v1H16zM21 25h1v1H21zM24 25h1v1H24zM26,25 h3v1H26zM0 26h1v1H0zM2 26h3v1H2zM6 26h1v1H6zM8 26h3v1H8zM12 26h1v1H12zM20 26h1v1H20zM23 26h3v1H23zM28,26 h1v1H28zM0 27h1v1H0zM6 27h1v1H6zM9 27h2v1H9zM14 27h7v1H14zM22 27h2v1H22zM27 27h1v1H27zM0 28h7v1H0zM8 28h1v1H8zM10 28h1v1H10zM12 28h1v1H12zM15 28h6v1H15zM27,28 h2v1H27z"></path></svg>